<?xml version="1.0" standalone="no"?>
<!DOCTYPE svg PUBLIC "-//W3C//DTD SVG 20010904//EN"
 "http://www.w3.org/TR/2001/REC-SVG-20010904/DTD/svg10.dtd">
<svg version="1.0" xmlns="http://www.w3.org/2000/svg"
 width="190.000000pt" height="190.000000pt" viewBox="0 0 190.000000 190.000000"
 preserveAspectRatio="xMidYMid meet">
<metadata>
Created by potrace 1.14, written by Peter Selinger 2001-2017
</metadata>
<g transform="translate(0.000000,190.000000) scale(0.100000,-0.100000)"
fill="#000000" stroke="none">
<path d="M1800 1361 c0 -20 -93 -111 -162 -158 -94 -65 -348 -213 -365 -213
-19 0 -16 30 9 81 12 24 22 62 22 84 1 40 1 40 -39 41 -22 1 -63 -6 -92 -14
-57 -16 -54 -10 -79 -146 -6 -36 -5 -39 12 -32 31 13 123 30 128 25 3 -3 -8
-46 -24 -97 -17 -51 -30 -96 -30 -101 0 -41 131 19 333 153 184 121 272 213
293 306 11 51 12 80 2 80 -4 0 -8 -4 -8 -9z"/>
<path d="M160 983 c0 -5 -7 -42 -16 -83 -9 -41 -17 -84 -20 -95 -6 -32 -39
-53 -78 -49 -41 3 -55 -11 -33 -33 21 -22 98 -21 130 0 41 27 54 54 76 161 12
55 21 101 21 103 0 1 -18 3 -40 3 -22 0 -40 -3 -40 -7z"/>
<path d="M247 857 c-9 -46 -17 -90 -19 -98 -3 -16 49 -26 62 -12 5 4 11 26 15
49 3 22 10 56 15 75 17 59 14 69 -23 69 l-33 0 -17 -83z"/>
<path d="M369 938 c0 -2 -2 -10 -4 -19 -1 -10 -10 -49 -19 -87 -21 -91 -21
-92 9 -92 27 0 43 27 47 76 1 13 5 24 8 24 3 -1 22 -23 43 -50 27 -35 46 -50
62 -50 27 0 32 6 39 41 2 13 11 55 19 92 l15 68 -32 -3 c-28 -3 -32 -7 -40
-50 -4 -27 -11 -48 -15 -48 -3 1 -22 23 -41 50 -27 39 -41 50 -62 50 -16 0
-28 -1 -29 -2z"/>
<path d="M610 883 c-6 -32 -15 -73 -20 -92 -5 -19 -7 -38 -4 -43 8 -13 127 -7
162 8 35 14 62 51 64 85 3 79 -21 99 -118 99 l-73 0 -11 -57z m120 2 c16 -10
11 -61 -7 -77 -10 -8 -28 -18 -41 -21 -25 -6 -25 -13 -6 82 5 29 24 34 54 16z"/>
<path d="M848 843 l-65 -98 29 -3 c36 -4 51 8 86 70 l27 49 10 -58 c10 -58 11
-58 49 -61 37 -3 38 -2 33 25 -3 15 -11 61 -18 101 l-12 72 -37 0 c-36 0 -40
-3 -102 -97z"/>
<path d="M1070 935 c0 -9 -30 -158 -36 -177 -5 -16 3 -18 70 -18 42 0 76 4 76
9 0 5 2 16 5 24 4 10 -4 14 -31 15 -20 1 -38 3 -40 4 -1 2 4 32 11 68 8 36 14
68 15 73 0 4 -16 7 -35 7 -19 0 -35 -2 -35 -5z"/>
<path d="M312 675 c-30 -22 -28 -45 8 -79 25 -23 28 -31 18 -43 -8 -10 -22
-13 -41 -9 -20 4 -27 2 -25 -7 7 -19 58 -20 79 -1 27 24 24 46 -11 79 -34 32
-26 55 15 47 15 -2 25 0 25 7 0 6 -4 11 -9 11 -5 0 -15 2 -23 5 -7 3 -23 -2
-36 -10z"/>
<path d="M400 673 c0 -7 10 -13 21 -13 19 0 20 -4 15 -32 -9 -48 -14 -71 -18
-87 -1 -7 2 -15 8 -18 6 -2 17 24 25 64 13 63 16 68 42 71 15 2 27 8 27 13 0
5 -12 9 -27 10 -16 0 -43 1 -61 2 -20 1 -32 -3 -32 -10z"/>
<path d="M568 682 c-24 -3 -28 -9 -38 -60 -7 -31 -14 -66 -16 -78 -5 -18 0
-20 40 -23 35 -1 46 2 46 13 0 10 -8 13 -30 10 -27 -5 -30 -3 -28 20 1 14 8
27 15 27 7 1 18 3 23 4 6 1 15 3 21 4 5 0 7 6 4 11 -4 6 -12 10 -18 9 -27 -3
-35 2 -30 21 4 15 14 20 39 20 19 0 34 4 34 9 0 11 -28 17 -62 13z"/>
<path d="M667 678 c-7 -4 -9 -8 -6 -8 4 0 -1 -33 -11 -74 l-17 -74 43 0 c44 0
74 17 35 19 -19 1 -27 3 -46 8 -2 0 -1 11 4 24 5 14 17 22 32 22 13 0 24 5 24
10 0 6 -10 10 -22 9 -24 0 -27 4 -17 30 4 9 18 16 34 16 16 0 31 4 34 9 7 11
-71 19 -87 9z"/>
<path d="M969 676 c-17 -8 -24 -20 -24 -40 0 -16 -7 -31 -17 -37 -22 -12 -23
-42 -3 -63 11 -10 32 -15 65 -13 30 1 45 6 40 11 -5 5 -6 14 -1 20 15 19 23
56 12 56 -5 0 -13 -10 -16 -21 -7 -20 -8 -20 -23 -5 -15 15 -15 17 6 32 46 32
12 86 -39 60z m37 -17 c3 -6 -1 -18 -10 -27 -15 -15 -18 -15 -26 -2 -5 9 -5
19 2 27 13 16 25 17 34 2z m-19 -111 c-35 -23 -69 8 -41 37 14 14 17 13 34 -7
13 -17 15 -25 7 -30z"/>
<path d="M1150 631 c-20 -88 -22 -111 -11 -111 6 0 14 15 19 33 7 27 14 33 40
35 39 4 64 35 53 66 -6 15 -19 23 -48 27 l-41 5 -12 -55z m75 4 c0 -15 -8 -21
-29 -23 -23 -3 -28 0 -22 13 3 9 6 21 6 27 0 5 10 8 23 6 14 -2 22 -10 22 -23z"/>
<path d="M1334 683 c-58 -11 -94 -103 -55 -142 55 -55 147 5 134 89 -3 23 -37
62 -52 59 -3 -1 -16 -4 -27 -6z m56 -58 c0 -68 -57 -108 -91 -66 -16 20 -17
26 -6 54 25 60 97 68 97 12z"/>
<path d="M1542 682 c-6 -4 -23 -34 -38 -67 -30 -65 -31 -64 -36 9 -2 29 -9 51
-16 54 -10 3 -11 -13 -6 -70 10 -113 22 -117 67 -20 l32 67 3 -67 c4 -91 20
-89 71 9 45 85 48 95 27 87 -8 -3 -26 -32 -41 -65 -15 -33 -29 -59 -31 -56 -3
2 -5 30 -5 61 -1 58 -7 70 -27 58z"/>
<path d="M1705 682 c-16 -2 -24 -16 -34 -60 -7 -31 -15 -67 -18 -78 -4 -19 0
-22 42 -22 32 -1 45 2 42 11 -2 7 -16 11 -30 11 -15 -1 -27 4 -26 10 1 26 16
42 38 42 14 0 26 5 29 13 3 8 -3 12 -19 9 -19 -2 -25 2 -27 20 -3 19 1 22 32
22 20 0 36 4 36 9 0 10 -36 18 -65 13z"/>
<path d="M776 609 c-9 -39 -16 -75 -16 -79 0 -3 20 -7 45 -7 30 -1 45 3 42 11
-2 6 -16 10 -30 10 -31 -1 -31 1 -13 79 11 45 11 57 1 57 -8 0 -19 -29 -29
-71z"/>
<path d="M1803 666 c0 -7 -6 -41 -13 -75 -12 -56 -9 -84 6 -69 5 6 12 32 13
56 1 6 10 12 21 12 15 0 22 -9 27 -30 5 -29 19 -47 28 -38 3 2 0 20 -5 38 -8
26 -6 37 5 50 20 22 19 56 -1 64 -30 11 -81 7 -81 -8z m71 -14 c8 -13 -9 -32
-32 -37 -16 -3 -22 1 -22 14 0 10 3 21 7 24 9 10 41 9 47 -1z"/>
</g>
</svg>
